<svg width="24" height="24" viewBox="0 0 24 24" fill="none" xmlns="http://www.w3.org/2000/svg">
<path d="M16.5386 6.39258L12.0483 9.89692L7.45532 6.39258V6.39352L7.46087 6.39826V11.3053L11.9966 14.8853L16.5386 11.4435V6.39258Z" fill="#EA4335"/>
<path d="M17.7178 5.53979L16.5386 6.39219V11.4431L20.2492 8.59425V6.87805C20.2492 6.87805 19.7987 4.42693 17.7178 5.53979Z" fill="#FBBC05"/>
<path d="M16.5386 11.4432V17.9944H19.3826C19.3826 17.9944 20.1918 17.911 20.2501 16.9885V8.59424L16.5386 11.4432Z" fill="#34A853"/>
<path d="M7.46108 17.9996V11.3045L7.45532 11.2998L7.46108 17.9996Z" fill="#C5221F"/>
<path d="M7.4551 6.3934L6.28235 5.54573C4.20134 4.43288 3.75 6.88305 3.75 6.88305V8.59923L7.4551 11.3004V6.3934Z" fill="#C5221F"/>
<path d="M7.45532 6.39258V11.2996L7.46108 11.3043V6.39731L7.45532 6.39258Z" fill="#C5221F"/>
<path d="M3.75 8.6001V16.9943C3.80734 17.9177 4.61755 18.0001 4.61755 18.0001H7.46158L7.4551 11.3002L3.75 8.6001Z" fill="#4285F4"/>
</svg>
