<svg width="24" height="24" viewBox="0 0 24 24" fill="none" xmlns="http://www.w3.org/2000/svg">
<path d="M18.3694 4.5H15.9309V8.0334H19.499V5.49634C19.499 5.49634 19.3227 4.59636 18.3694 4.5Z" fill="#1967D2"/>
<path d="M15.9321 19.4835V19.4922V19.4998L19.5003 15.9664H19.4682L15.9321 19.4835Z" fill="#1967D2"/>
<path d="M19.5 15.9662V15.9346L19.4683 15.9662H19.5Z" fill="#FBBC05"/>
<path d="M19.5003 8.03357H15.9321V15.9349H19.5003V8.03357Z" fill="#FBBC05"/>
<path d="M19.4682 15.9664H15.9321V19.4835L19.4682 15.9664Z" fill="#EA4335"/>
<path d="M15.9321 15.9662H19.4682L19.5003 15.9346H15.9321V15.9662Z" fill="#EA4335"/>
<path d="M15.9233 19.4921H15.932V19.4835L15.9233 19.4921Z" fill="#34A853"/>
<path d="M7.98779 15.9346V19.492H15.9232L15.932 15.9346H7.98779Z" fill="#34A853"/>
<path d="M15.932 15.9664V15.9346L15.9233 19.492L15.932 19.4834V15.9664Z" fill="#34A853"/>
<path d="M4.5 15.9346V18.4081C4.53197 19.2107 5.40001 19.492 5.40001 19.492H7.98773V15.9346H4.5Z" fill="#188038"/>
<path d="M7.98773 8.03346H15.9319V4.5H5.50078C5.50078 4.5 4.56394 4.59636 4.5 5.59174V15.9348H7.98773V8.03346Z" fill="#4285F4"/>
<path d="M10.5866 14.3355C10.4049 14.3355 10.2296 14.3119 10.0609 14.2645C9.89641 14.2171 9.74499 14.1461 9.60654 14.0515C9.46801 13.9525 9.34471 13.8298 9.23649 13.6834C9.13269 13.5371 9.05259 13.3671 8.99634 13.1734L9.79471 12.8571C9.85096 13.0723 9.94621 13.2358 10.0803 13.3477C10.2145 13.4554 10.3832 13.5091 10.5866 13.5091C10.6775 13.5091 10.7641 13.4962 10.8463 13.4704C10.9285 13.4403 10.9999 13.3994 11.0605 13.3477C11.1211 13.2961 11.1686 13.2358 11.2033 13.167C11.2422 13.0938 11.2617 13.012 11.2617 12.9217C11.2617 12.7323 11.1903 12.5838 11.0475 12.4762C10.9091 12.3686 10.7165 12.3148 10.4698 12.3148H10.0868V11.5465H10.4374C10.5239 11.5465 10.6083 11.5357 10.6905 11.5142C10.7727 11.4927 10.8441 11.4604 10.9047 11.4174C10.9696 11.3701 11.0194 11.3119 11.054 11.2431C11.093 11.17 11.1124 11.086 11.1124 10.9913C11.1124 10.845 11.0605 10.7266 10.9566 10.6363C10.8527 10.5415 10.7121 10.4942 10.5347 10.4942C10.3443 10.4942 10.1972 10.5458 10.0934 10.6492C9.99376 10.7482 9.92454 10.8601 9.88561 10.9849L9.10666 10.6685C9.14566 10.5609 9.20409 10.4512 9.28194 10.3393C9.35986 10.2231 9.45721 10.1197 9.57406 10.0294C9.69519 9.93471 9.83589 9.85934 9.99594 9.80339C10.1561 9.74316 10.34 9.71301 10.5477 9.71301C10.7597 9.71301 10.9523 9.74316 11.1254 9.80339C11.3028 9.86369 11.4542 9.94761 11.5798 10.0552C11.7053 10.1585 11.8026 10.2833 11.8718 10.4296C11.9411 10.5717 11.9757 10.7266 11.9757 10.8945C11.9757 11.0236 11.9584 11.1398 11.9238 11.2431C11.8935 11.3464 11.8524 11.4389 11.8004 11.5207C11.7485 11.6025 11.6879 11.6735 11.6187 11.7337C11.5538 11.7897 11.4867 11.8349 11.4175 11.8693V11.9209C11.6252 12.0028 11.7962 12.134 11.9303 12.3148C12.0688 12.4956 12.138 12.7237 12.138 12.9991C12.138 13.1928 12.1012 13.3714 12.0276 13.5349C11.9541 13.6942 11.8481 13.8341 11.7096 13.9546C11.5754 14.0751 11.4131 14.1676 11.2228 14.2322C11.0324 14.3011 10.8203 14.3355 10.5866 14.3355Z" fill="#4285F4"/>
<path d="M13.688 14.2321V10.8105L12.9026 11.1397L12.5911 10.4231L13.8958 9.81628H14.5384V14.2321H13.688Z" fill="#4285F4"/>
</svg>
