<svg width="24" height="24" viewBox="0 0 24 24" fill="none" xmlns="http://www.w3.org/2000/svg">
<path d="M22.5 12C22.5 6.20101 17.799 1.5 12 1.5C6.20101 1.5 1.5 6.20101 1.5 12C1.5 17.799 6.20101 22.5 12 22.5C17.799 22.5 22.5 17.799 22.5 12Z" fill="#1275B1"/>
<path d="M9.46395 7.26911C9.46395 7.97003 8.85638 8.53823 8.10698 8.53823C7.35753 8.53823 6.75 7.97003 6.75 7.26911C6.75 6.5682 7.35753 6 8.10698 6C8.85638 6 9.46395 6.5682 9.46395 7.26911Z" fill="white"/>
<path d="M6.93555 9.47107H9.25513V16.5H6.93555V9.47107Z" fill="white"/>
<path d="M12.9898 9.47083H10.6702V16.4998H12.9898C12.9898 16.4998 12.9898 14.287 12.9898 12.9034C12.9898 12.073 13.2733 11.2389 14.4047 11.2389C15.6833 11.2389 15.6757 12.3256 15.6697 13.1676C15.6619 14.2681 15.6805 15.3912 15.6805 16.4998H18.0001V12.79C17.9804 10.4213 17.3632 9.32983 15.3325 9.32983C14.1266 9.32983 13.3791 9.87733 12.9898 10.3726V9.47083Z" fill="white"/>
</svg>
