<svg width="24" height="17" viewBox="0 0 24 17" fill="none" xmlns="http://www.w3.org/2000/svg">
<g clip-path="url(#clip0_17766_214133)">
<mask id="mask0_17766_214133" style="mask-type:luminance" maskUnits="userSpaceOnUse" x="0" y="0" width="24" height="17">
<path d="M0.00537109 0.043335H23.9175V16.7466H0.00537109V0.043335Z" fill="white"/>
</mask>
<g mask="url(#mask0_17766_214133)">
<path fill-rule="evenodd" clip-rule="evenodd" d="M9.93393 1.87246C10.7058 1.06894 11.7801 0.571362 12.9669 0.571362C14.5493 0.571362 15.9207 1.45048 16.6592 2.76037C17.3147 2.46734 18.0247 2.31606 18.7427 2.31642C21.5911 2.31642 23.9031 4.64609 23.9031 7.52083C23.9031 10.3955 21.5911 12.7252 18.7427 12.7252C18.3946 12.7252 18.0552 12.6902 17.7229 12.6241C17.0768 13.7758 15.8416 14.5582 14.435 14.5582C13.8623 14.5593 13.297 14.4294 12.7823 14.1784C12.1273 15.7169 10.602 16.7982 8.82624 16.7982C6.97128 16.7982 5.39764 15.6289 4.79107 13.985C4.52109 14.042 4.24589 14.0706 3.96997 14.0704C1.76337 14.0704 -0.0212402 12.2594 -0.0212402 10.0353C-0.0212402 8.54078 0.782278 7.23969 1.97436 6.53639C1.72146 5.95377 1.59128 5.32535 1.59195 4.69022C1.59195 2.12319 3.67546 0.0484619 6.24249 0.0484619C7.7458 0.0484619 9.09086 0.764946 9.9348 1.87703" fill="#00A1E0"/>
</g>
<path fill-rule="evenodd" clip-rule="evenodd" d="M3.46369 8.72956C3.44866 8.76877 3.46905 8.77693 3.47389 8.78389C3.51881 8.81644 3.56444 8.83996 3.61015 8.86645C3.85455 8.99567 4.08488 9.03349 4.32576 9.03349C4.81632 9.03349 5.12136 8.77237 5.12136 8.35213V8.34388C5.12136 7.95532 4.77674 7.81377 4.45499 7.71268L4.41287 7.69905C4.16936 7.62013 3.95925 7.55135 3.95925 7.39137V7.38321C3.95925 7.24607 4.08233 7.14493 4.27222 7.14493C4.4832 7.14493 4.73463 7.21521 4.89552 7.30405C4.89552 7.30405 4.94314 7.33482 4.96047 7.28884C4.96988 7.26397 5.05191 7.04447 5.06069 7.01985C5.07 6.99407 5.05368 6.97468 5.03688 6.96465C4.85228 6.85213 4.59731 6.77562 4.33358 6.77562L4.28461 6.77581C3.83538 6.77581 3.52153 7.04745 3.52153 7.43601V7.44436C3.52153 7.85404 3.86791 7.98767 4.19143 8.07997L4.24347 8.09615C4.47907 8.16858 4.68303 8.23156 4.68303 8.39682V8.40508C4.68303 8.55719 4.55028 8.67057 4.33753 8.67057C4.25481 8.67057 3.99116 8.66917 3.70545 8.4886C3.6709 8.46849 3.65121 8.45394 3.62457 8.43772C3.6105 8.42917 3.57534 8.41377 3.56004 8.45985L3.46334 8.72884M10.6457 8.72884C10.6307 8.76805 10.6511 8.77626 10.6561 8.78317C10.7009 8.81572 10.7467 8.83929 10.7924 8.86573C11.0368 8.99495 11.2671 9.03277 11.508 9.03277C11.9986 9.03277 12.3036 8.77165 12.3036 8.35146V8.34321C12.3036 7.9546 11.9599 7.81309 11.6372 7.71196L11.5951 7.69837C11.3516 7.61941 11.1415 7.55068 11.1415 7.39065V7.38249C11.1415 7.24535 11.2645 7.14426 11.4544 7.14426C11.6654 7.14426 11.916 7.21449 12.0778 7.30338C12.0778 7.30338 12.1254 7.33415 12.1428 7.28817C12.1521 7.26325 12.2342 7.04375 12.2422 7.01913C12.2516 6.9934 12.2351 6.97396 12.2184 6.96393C12.0338 6.85141 11.7789 6.7749 11.5151 6.7749L11.4661 6.77509C11.0168 6.77509 10.703 7.04673 10.703 7.43533V7.44369C10.703 7.85337 11.0494 7.98695 11.3729 8.07925L11.4248 8.09543C11.6613 8.16791 11.8644 8.23084 11.8644 8.3961V8.40436C11.8644 8.55647 11.7316 8.66989 11.5189 8.66989C11.436 8.66989 11.1717 8.66845 10.8868 8.48788C10.8523 8.46777 10.832 8.45389 10.8059 8.437C10.797 8.43138 10.7556 8.41521 10.7414 8.45913L10.6447 8.72817M15.5502 7.9053C15.5502 8.14266 15.5059 8.32991 15.4192 8.46268C15.3327 8.59367 15.2021 8.65785 15.0201 8.65785C14.8381 8.65785 14.708 8.5942 14.6227 8.46354C14.5369 8.33169 14.4935 8.14353 14.4935 7.90617C14.4935 7.66881 14.5371 7.48242 14.6227 7.35143C14.7078 7.22135 14.8372 7.1589 15.0201 7.1589C15.2029 7.1589 15.333 7.22197 15.4192 7.35143C15.5064 7.48242 15.5502 7.66881 15.5502 7.90617M15.9599 7.46572C15.9195 7.32949 15.857 7.20993 15.7735 7.1097C15.6899 7.00948 15.5845 6.9286 15.4588 6.87057C15.3339 6.8121 15.1862 6.78268 15.0192 6.78268C14.8522 6.78268 14.7054 6.81229 14.5797 6.87057C14.4548 6.92893 14.3485 7.00948 14.2649 7.1097C14.1816 7.20993 14.119 7.32949 14.0785 7.46572C14.0386 7.60113 14.0183 7.74882 14.0183 7.90617C14.0183 8.06356 14.0386 8.21125 14.0785 8.34661C14.1187 8.48289 14.1814 8.60245 14.2649 8.70268C14.3485 8.8029 14.4548 8.88287 14.5797 8.94004C14.7054 8.99701 14.853 9.02601 15.0192 9.02601C15.1854 9.02601 15.333 8.99701 15.4579 8.94004C15.5827 8.88306 15.6891 8.8029 15.7726 8.70268C15.856 8.60245 15.9185 8.48289 15.959 8.34661C15.9989 8.21125 16.0192 8.06356 16.0192 7.90617C16.0192 7.74969 15.9989 7.60113 15.959 7.46572M19.326 8.59103C19.3126 8.55119 19.2737 8.56621 19.2737 8.56621C19.2142 8.58901 19.1506 8.61009 19.0829 8.62065C19.0147 8.63135 18.9388 8.63673 18.8588 8.63673C18.661 8.63673 18.5027 8.57773 18.3902 8.4609C18.2768 8.34397 18.2135 8.15586 18.2144 7.90089C18.215 7.66881 18.2711 7.49476 18.3717 7.36113C18.4711 7.22927 18.6241 7.16068 18.8262 7.16068C18.995 7.16068 19.1243 7.18031 19.2597 7.22265C19.2597 7.22265 19.2917 7.23666 19.3071 7.19437C19.3431 7.09501 19.3696 7.02378 19.4082 6.91477C19.4191 6.88357 19.3924 6.87037 19.3826 6.86663C19.3296 6.84589 19.2042 6.81186 19.1092 6.79751C19.0204 6.78397 18.9176 6.77697 18.8016 6.77697C18.6292 6.77697 18.4763 6.80639 18.3453 6.86476C18.2143 6.92308 18.1035 7.00367 18.0156 7.10389C17.9277 7.20412 17.8609 7.32369 17.816 7.45996C17.7717 7.59532 17.7492 7.74388 17.7492 7.90127C17.7492 8.24058 17.8406 8.51577 18.0217 8.71708C18.2029 8.91925 18.4754 9.02126 18.8305 9.02126C19.0406 9.02126 19.256 8.97877 19.4108 8.91753C19.4108 8.91753 19.4403 8.90327 19.4275 8.86881L19.3264 8.59103M20.0428 7.67673C20.0625 7.54487 20.0986 7.43495 20.1554 7.3497C20.2404 7.21957 20.3699 7.14839 20.5519 7.14839C20.7338 7.14839 20.8543 7.21996 20.9404 7.3497C20.9976 7.43543 21.0226 7.54924 21.0319 7.67673L20.0385 7.67653L20.0428 7.67673ZM21.4231 7.38661C21.3882 7.25562 21.3017 7.1229 21.2455 7.06223C21.1558 6.96637 21.0688 6.89869 20.9818 6.86178C20.8561 6.80836 20.7209 6.78095 20.5844 6.78119C20.4112 6.78119 20.2538 6.81042 20.1264 6.86994C19.9989 6.92989 19.8916 7.01149 19.8073 7.11349C19.723 7.21545 19.6596 7.33588 19.6191 7.47393C19.5787 7.6102 19.5583 7.75962 19.5583 7.9161C19.5583 8.07613 19.5795 8.22469 19.6212 8.35919C19.6633 8.49455 19.731 8.61325 19.8225 8.7117C19.9139 8.81106 20.0308 8.88844 20.1715 8.94292C20.3113 8.99701 20.4809 9.02505 20.6752 9.02442C21.0761 9.02308 21.2871 8.93389 21.3732 8.88551C21.3886 8.87692 21.4031 8.86204 21.385 8.81922L21.2944 8.56516C21.2806 8.52729 21.2423 8.54101 21.2423 8.54101C21.1429 8.57807 21.0023 8.64474 20.6726 8.64383C20.4572 8.64349 20.2981 8.57994 20.1978 8.48034C20.0959 8.37834 20.0449 8.22978 20.037 8.01877L21.426 8.01983C21.426 8.01983 21.4625 8.01949 21.4663 7.98378C21.4678 7.96905 21.5139 7.69895 21.4249 7.3869L21.4231 7.38661ZM8.93957 7.67673C8.95916 7.54487 8.9954 7.43495 9.05209 7.3497C9.13719 7.21957 9.2666 7.14839 9.44857 7.14839C9.63053 7.14839 9.75096 7.21996 9.83712 7.3497C9.8942 7.43543 9.91916 7.54924 9.92856 7.67673L8.93516 7.67653L8.93957 7.67673ZM10.3198 7.38661C10.285 7.25562 10.1985 7.1229 10.1422 7.06223C10.0525 6.96637 9.96548 6.89869 9.87845 6.86178C9.75279 6.80836 9.61762 6.78095 9.48111 6.78119C9.30792 6.78119 9.15053 6.81042 9.02309 6.86994C8.89561 6.92989 8.78837 7.01149 8.70394 7.11349C8.61984 7.21545 8.55624 7.33588 8.51583 7.47393C8.47546 7.6102 8.45516 7.75962 8.45516 7.9161C8.45516 8.07613 8.47618 8.22469 8.51809 8.35919C8.56013 8.49455 8.62801 8.61325 8.71853 8.7117C8.80997 8.81106 8.9269 8.88844 9.06754 8.94292C9.20732 8.99701 9.37613 9.02505 9.5713 9.02442C9.97215 9.02308 10.1832 8.93389 10.2693 8.88551C10.2846 8.87692 10.2992 8.86204 10.281 8.81922L10.1905 8.56516C10.1765 8.52729 10.1381 8.54101 10.1381 8.54101C10.0388 8.57807 9.89813 8.64474 9.56847 8.64383C9.35396 8.64349 9.19397 8.57994 9.09375 8.48034C8.9918 8.37834 8.94077 8.22978 8.93285 8.01877L10.3219 8.01983C10.3219 8.01983 10.3585 8.01949 10.3622 7.98378C10.3637 7.96905 10.4098 7.69895 10.3207 7.3869L10.3198 7.38661ZM5.94173 8.58225C5.88735 8.53881 5.87976 8.52815 5.86176 8.49993C5.83426 8.45749 5.8202 8.39706 5.8202 8.31973C5.8202 8.19839 5.86061 8.1105 5.94413 8.05161C5.94327 8.05175 6.0637 7.94783 6.34676 7.95138C6.47276 7.95364 6.59847 7.96434 6.72303 7.98345V8.61378H6.72322C6.72322 8.61378 6.5474 8.65165 6.34872 8.66361C6.06648 8.6806 5.94168 8.58239 5.94255 8.58268L5.94173 8.58225ZM6.49383 7.60641C6.43757 7.60228 6.36461 7.60026 6.27759 7.60026C6.15889 7.60026 6.04373 7.615 5.9365 7.64404C5.82836 7.67322 5.73077 7.71839 5.64725 7.77853C5.56349 7.83829 5.49461 7.91649 5.44594 8.00711C5.39679 8.09855 5.37173 8.20578 5.37173 8.32708C5.37173 8.4502 5.39309 8.55657 5.43528 8.64359C5.47666 8.72989 5.53887 8.80453 5.61639 8.86074C5.69348 8.91681 5.78871 8.95833 5.89858 8.9829C6.00759 9.00781 6.13066 9.02039 6.26607 9.02039C6.40848 9.02039 6.55004 9.00844 6.68717 8.9853C6.80396 8.96514 6.92031 8.94253 7.03618 8.91743C7.08241 8.90677 7.13376 8.89281 7.13376 8.89281C7.16804 8.88412 7.1654 8.84745 7.1654 8.84745L7.16463 7.58154C7.16463 7.30372 7.09042 7.09713 6.94397 6.96964C6.798 6.8422 6.58441 6.77802 6.30749 6.77802C6.20372 6.77802 6.03581 6.79209 5.93559 6.8122C5.93559 6.8122 5.63319 6.8709 5.50834 6.96868C5.50834 6.96868 5.48093 6.98557 5.49586 7.02378L5.59431 7.28754C5.60655 7.32172 5.63986 7.31005 5.63986 7.31005C5.63986 7.31005 5.65032 7.30593 5.66261 7.29863C5.92901 7.15357 6.2666 7.15794 6.2666 7.15794C6.41602 7.15794 6.53209 7.18828 6.60946 7.24761C6.68516 7.30573 6.72375 7.39357 6.72375 7.57818V7.63684C6.60504 7.61961 6.49517 7.60967 6.49517 7.60967L6.49383 7.60641ZM17.6587 6.89169C17.6607 6.88703 17.6617 6.88204 17.6617 6.877C17.6618 6.87196 17.6608 6.86697 17.6589 6.86231C17.6569 6.85761 17.6541 6.85343 17.6504 6.84988C17.6468 6.84633 17.6425 6.84359 17.6378 6.84172C17.6142 6.83279 17.4963 6.80788 17.4058 6.80226C17.2317 6.79137 17.135 6.82074 17.048 6.85977C16.962 6.89855 16.8669 6.96085 16.8141 7.03295L16.8139 6.86413C16.8139 6.84095 16.7975 6.82223 16.7741 6.82223H16.4189C16.3959 6.82223 16.3792 6.84095 16.3792 6.86413V8.9301C16.3792 8.94124 16.3837 8.95194 16.3916 8.95986C16.3994 8.96773 16.4101 8.9722 16.4213 8.9722H16.7853C16.7964 8.9722 16.8071 8.96773 16.815 8.95981C16.8229 8.95194 16.8273 8.94124 16.8273 8.9301V7.89273C16.8273 7.75381 16.8426 7.61581 16.8731 7.52879C16.9032 7.44273 16.9441 7.37404 16.9944 7.32484C17.0425 7.27727 17.1013 7.24199 17.1659 7.22197C17.2264 7.20455 17.2892 7.19577 17.3522 7.19577C17.4247 7.19577 17.5043 7.21439 17.5043 7.21439C17.531 7.21737 17.5459 7.20105 17.5549 7.17695C17.5788 7.11354 17.6464 6.92375 17.6595 6.88597" fill="#FFFFFE"/>
<path fill-rule="evenodd" clip-rule="evenodd" d="M14.2595 5.93831C14.2145 5.92473 14.1687 5.91383 14.1224 5.90577C14.0602 5.8954 13.9971 5.8905 13.934 5.89117C13.6831 5.89117 13.4854 5.96202 13.3466 6.10199C13.2088 6.2409 13.115 6.45249 13.0679 6.73093L13.051 6.82492H12.7361C12.7361 6.82492 12.6977 6.82333 12.6896 6.86524L12.638 7.15362C12.6343 7.18122 12.6462 7.19845 12.6831 7.19826H12.9896L12.6787 8.93389C12.6543 9.07367 12.6265 9.18868 12.5956 9.2758C12.5652 9.36177 12.5355 9.42623 12.4989 9.47298C12.4635 9.51825 12.4299 9.55161 12.3719 9.571C12.3241 9.58708 12.2691 9.59447 12.2088 9.59447C12.1752 9.59447 12.1305 9.58885 12.0975 9.58228C12.0646 9.57575 12.0474 9.56836 12.0228 9.55799C12.0228 9.55799 11.9868 9.54431 11.9727 9.58031C11.9611 9.60978 11.8794 9.83437 11.8698 9.86217C11.8599 9.88962 11.8737 9.91122 11.8911 9.91746C11.9319 9.93205 11.9623 9.94137 12.0178 9.95447C12.095 9.97266 12.1601 9.97381 12.221 9.97381C12.3486 9.97381 12.4649 9.95591 12.5614 9.92106C12.6584 9.88602 12.7429 9.82492 12.8176 9.74217C12.8984 9.65293 12.9493 9.55948 12.9979 9.43204C13.046 9.3057 13.0869 9.14884 13.1197 8.9661L13.4321 7.19826H13.889C13.889 7.19826 13.9275 7.19965 13.9355 7.15789L13.9872 6.86956C13.9908 6.84196 13.979 6.82473 13.9419 6.82492H13.4985C13.5007 6.81489 13.5208 6.65893 13.5718 6.5121C13.5935 6.44941 13.6344 6.39887 13.669 6.36417C13.7013 6.33109 13.7412 6.30628 13.7851 6.29188C13.8333 6.277 13.8835 6.26975 13.934 6.27042C13.9757 6.27042 14.0167 6.27546 14.0479 6.28194C14.0909 6.29111 14.1076 6.29596 14.1188 6.29927C14.164 6.31309 14.1701 6.2997 14.179 6.27781L14.285 5.98665C14.2959 5.95535 14.2694 5.9422 14.2595 5.93831ZM8.06396 8.93759C8.06396 8.96082 8.04745 8.97973 8.02427 8.97973H7.65649C7.63321 8.97973 7.6167 8.96082 7.6167 8.93759V5.97777C7.6167 5.95468 7.63321 5.93596 7.65649 5.93596H8.02427C8.04745 5.93596 8.06396 5.95468 8.06396 5.97777V8.93759Z" fill="#FFFFFE"/>
</g>
<defs>
<clipPath id="clip0_17766_214133">
<rect width="24" height="16.8" fill="white"/>
</clipPath>
</defs>
</svg>
