<svg width="24" height="12" viewBox="0 0 24 12" fill="none" xmlns="http://www.w3.org/2000/svg">
<path fill-rule="evenodd" clip-rule="evenodd" d="M19.5202 5.04411C19.6118 5.20224 19.6418 5.38212 19.6517 5.58435L19.6647 5.85391V7.73884L19.678 8.00867C19.7046 8.44936 20.0296 8.7752 20.4736 8.80292L20.7421 8.81622V5.85391L20.7554 5.58435C20.7664 5.38439 20.7961 5.20109 20.8892 5.04185C20.984 4.87851 21.1201 4.74301 21.2839 4.64892C21.4476 4.55483 21.6333 4.50548 21.8221 4.50582C22.011 4.50617 22.1964 4.5562 22.3599 4.65088C22.5233 4.74555 22.6589 4.88157 22.7531 5.04524C22.8448 5.20337 22.8733 5.38665 22.8844 5.58435L22.8977 5.85308V7.73884L22.911 8.00867C22.9387 8.45162 23.2611 8.77748 23.7066 8.80292L23.975 8.81622V5.58435C23.975 5.01288 23.7481 4.4648 23.3441 4.06062C22.9401 3.65644 22.392 3.42925 21.8206 3.42903C21.5147 3.42871 21.2123 3.49366 20.9335 3.61956C20.6548 3.74546 20.4061 3.92938 20.2041 4.15907C20.002 3.92948 19.7533 3.74559 19.4746 3.61966C19.1958 3.49373 18.8934 3.42864 18.5876 3.42876C18.1401 3.42876 17.7249 3.56451 17.3809 3.799C17.1711 3.5648 16.7015 3.42876 16.432 3.42876V8.81622L16.7015 8.80292C17.1524 8.77322 17.4782 8.45615 17.4958 8.00867L17.5102 7.73884V5.85391L17.5235 5.58435C17.5348 5.38099 17.5631 5.20224 17.655 5.04298C17.7499 4.87976 17.886 4.74425 18.0496 4.65007C18.2133 4.55586 18.3988 4.50624 18.5876 4.50614C18.7765 4.50617 18.9622 4.5559 19.1259 4.65034C19.2895 4.74474 19.4255 4.88057 19.5202 5.04411ZM1.07738 8.80322L1.34694 8.81622H5.38746L5.37419 8.54752C5.3377 8.10457 5.02401 7.78099 4.57964 7.75214L4.31008 7.73884H1.88605L5.11793 4.50585L5.10463 4.23741C5.08369 3.78996 4.7567 3.46665 4.31008 3.44203L4.04052 3.42989L0 3.42876L0.013294 3.69832C0.0486505 4.13701 0.366857 4.46737 0.807541 4.49284L1.07738 4.50614H3.50143L0.269557 7.73911L0.282852 8.00867C0.309438 8.45277 0.629909 8.77437 1.07738 8.80292V8.80322ZM15.3744 4.21733C15.6246 4.46747 15.823 4.76443 15.9584 5.09128C16.0938 5.41812 16.1635 5.76842 16.1635 6.1222C16.1635 6.47598 16.0938 6.82628 15.9584 7.15312C15.823 7.47996 15.6246 7.77692 15.3744 8.02706C14.8689 8.53212 14.1836 8.81581 13.4691 8.81581C12.7546 8.81581 12.0693 8.53212 11.5638 8.02706C10.5119 6.97515 10.5119 5.26927 11.5638 4.21733C11.8138 3.96729 12.1105 3.76892 12.4371 3.63357C12.7638 3.49821 13.1138 3.42852 13.4674 3.42847C13.8215 3.42822 14.1722 3.4978 14.4995 3.6332C14.8267 3.76861 15.124 3.96722 15.3744 4.21763V4.21733ZM14.6121 4.98019C14.9151 5.28342 15.0853 5.69453 15.0853 6.1232C15.0853 6.55185 14.9151 6.96298 14.6121 7.26619C14.3089 7.5692 13.8978 7.73938 13.4691 7.73938C13.0404 7.73938 12.6293 7.5692 12.3261 7.26619C12.0231 6.96298 11.8529 6.55185 11.8529 6.1232C11.8529 5.69453 12.0231 5.28342 12.3261 4.98019C12.6293 4.6772 13.0404 4.507 13.4691 4.507C13.8978 4.507 14.3089 4.6772 14.6121 4.98019ZM7.81376 3.42847C8.16735 3.42857 8.51743 3.49829 8.84407 3.63372C9.17067 3.76912 9.46744 3.96754 9.71735 4.21763C10.7696 5.26927 10.7696 6.97542 9.71735 8.02706C9.21191 8.53212 8.52661 8.81581 7.81207 8.81581C7.09753 8.81581 6.41224 8.53212 5.90679 8.02706C4.85486 6.97515 4.85486 5.26927 5.90679 4.21733C6.15673 3.96729 6.4535 3.76892 6.78012 3.63357C7.10674 3.49821 7.45682 3.42852 7.81038 3.42847H7.81376ZM8.95509 4.97963C9.25815 5.28286 9.42842 5.69404 9.42842 6.12276C9.42842 6.5515 9.25815 6.96269 8.95509 7.26592C8.65185 7.56891 8.24074 7.73911 7.81207 7.73911C7.3834 7.73911 6.97229 7.56891 6.66906 7.26592C6.36607 6.96269 6.19587 6.55158 6.19587 6.12291C6.19587 5.69426 6.36607 5.28313 6.66906 4.9799C6.97229 4.67691 7.3834 4.5067 7.81207 4.5067C8.24074 4.5067 8.65185 4.67691 8.95509 4.9799V4.97963Z" fill="#2D8CFF"/>
</svg>
