<svg width="220" height="96" viewBox="0 0 220 96" fill="none" xmlns="http://www.w3.org/2000/svg">
<g filter="url(#filter0_i_17941_40549)">
<g clip-path="url(#clip0_17941_40549)">
<path d="M0 16C0 10.3995 0 7.59921 1.08993 5.46009C2.04867 3.57847 3.57847 2.04867 5.46009 1.08993C7.59921 0 10.3995 0 16 0H220V96H0V16Z" fill="#171717"/>
<circle cx="12" cy="12" r="2" fill="#525252"/>
<circle cx="19" cy="12" r="2" fill="#525252"/>
<circle cx="26" cy="12" r="2" fill="#525252"/>
<circle cx="14" cy="82" r="4" fill="#525252"/>
<g filter="url(#filter1_d_17941_40549)">
<g clip-path="url(#clip1_17941_40549)">
<path d="M44 18.8C44 14.3196 44 12.0794 44.8719 10.3681C45.6389 8.86278 46.8628 7.63893 48.3681 6.87195C50.0794 6 52.3196 6 56.8 6H220V96H44V18.8Z" fill="#0A0A0A"/>
<rect x="60" y="22" width="12" height="4" rx="2" fill="#404040"/>
<rect x="60" y="30" width="24" height="4" rx="2" fill="#525252"/>
<rect x="60" y="86" width="24" height="4" rx="2" fill="#404040"/>
<rect x="60" y="44" width="64" height="32" rx="6" fill="#404040"/>
<rect x="129" y="44" width="64" height="32" rx="6" fill="#404040"/>
<rect x="198" y="44" width="64" height="32" rx="6" fill="#404040"/>
</g>
<path d="M220.25 5.75V96.25H43.75V18.7998L43.752 17.2217C43.7571 15.7395 43.7769 14.5352 43.8594 13.5254C43.9696 12.176 44.1925 11.1516 44.6494 10.2549C45.4404 8.70255 46.7025 7.44037 48.2549 6.64941C49.1516 6.19254 50.176 5.96963 51.5254 5.85938C52.8719 5.74937 54.5639 5.75 56.7998 5.75H220.25Z" stroke="#262626" stroke-width="0.5"/>
</g>
<rect x="10" y="24" width="12" height="4" rx="2" fill="#525252"/>
<rect x="22" y="80" width="12" height="4" rx="2" fill="#525252"/>
<rect x="10" y="32" width="24" height="4" rx="2" fill="#525252"/>
<rect x="10" y="40" width="8" height="4" rx="2" fill="#525252"/>
</g>
</g>
<defs>
<filter id="filter0_i_17941_40549" x="0" y="0" width="220" height="100" filterUnits="userSpaceOnUse" color-interpolation-filters="sRGB">
<feFlood flood-opacity="0" result="BackgroundImageFix"/>
<feBlend mode="normal" in="SourceGraphic" in2="BackgroundImageFix" result="shape"/>
<feColorMatrix in="SourceAlpha" type="matrix" values="0 0 0 0 0 0 0 0 0 0 0 0 0 0 0 0 0 0 127 0" result="hardAlpha"/>
<feOffset dy="4"/>
<feGaussianBlur stdDeviation="8"/>
<feComposite in2="hardAlpha" operator="arithmetic" k2="-1" k3="1"/>
<feColorMatrix type="matrix" values="0 0 0 0 1 0 0 0 0 1 0 0 0 0 1 0 0 0 0.2 0"/>
<feBlend mode="normal" in2="shape" result="effect1_innerShadow_17941_40549"/>
</filter>
<filter id="filter1_d_17941_40549" x="27.5" y="-6.5" width="209" height="123" filterUnits="userSpaceOnUse" color-interpolation-filters="sRGB">
<feFlood flood-opacity="0" result="BackgroundImageFix"/>
<feColorMatrix in="SourceAlpha" type="matrix" values="0 0 0 0 0 0 0 0 0 0 0 0 0 0 0 0 0 0 127 0" result="hardAlpha"/>
<feOffset dy="4"/>
<feGaussianBlur stdDeviation="8"/>
<feComposite in2="hardAlpha" operator="out"/>
<feColorMatrix type="matrix" values="0 0 0 0 0 0 0 0 0 0 0 0 0 0 0 0 0 0 0.12 0"/>
<feBlend mode="normal" in2="BackgroundImageFix" result="effect1_dropShadow_17941_40549"/>
<feBlend mode="normal" in="SourceGraphic" in2="effect1_dropShadow_17941_40549" result="shape"/>
</filter>
<clipPath id="clip0_17941_40549">
<path d="M0 16C0 10.3995 0 7.59921 1.08993 5.46009C2.04867 3.57847 3.57847 2.04867 5.46009 1.08993C7.59921 0 10.3995 0 16 0H220V96H0V16Z" fill="white"/>
</clipPath>
<clipPath id="clip1_17941_40549">
<path d="M44 18.8C44 14.3196 44 12.0794 44.8719 10.3681C45.6389 8.86278 46.8628 7.63893 48.3681 6.87195C50.0794 6 52.3196 6 56.8 6H220V96H44V18.8Z" fill="white"/>
</clipPath>
</defs>
</svg>
