<svg width="20" height="20" viewBox="0 0 20 20" fill="none" xmlns="http://www.w3.org/2000/svg">
<path d="M10 18.75C14.8325 18.75 18.75 14.8325 18.75 10C18.75 5.16751 14.8325 1.25 10 1.25C5.16751 1.25 1.25 5.16751 1.25 10C1.25 14.8325 5.16751 18.75 10 18.75Z" fill="url(#paint0_linear_17598_97128)"/>
<path d="M13.2586 12.676L13.6473 10.2063H11.2157V8.60438C11.2157 7.92856 11.5548 7.26944 12.6439 7.26944H13.75V5.16687C13.75 5.16687 12.7466 5 11.7877 5C9.78425 5 8.47606 6.18309 8.47606 8.324V10.2063H6.25V12.676H8.47606V18.6466C8.92294 18.715 9.38012 18.75 9.84587 18.75C10.3116 18.75 10.7689 18.715 11.2157 18.6466V12.676H13.2586Z" fill="white"/>
<defs>
<linearGradient id="paint0_linear_17598_97128" x1="10" y1="1.25" x2="10" y2="18.6981" gradientUnits="userSpaceOnUse">
<stop stop-color="#18ACFE"/>
<stop offset="1" stop-color="#0163E0"/>
</linearGradient>
</defs>
</svg>
